{"title":"SECONDS APART (2011) DVDRip [MKV 6ch AC3][RoB]PR3DATOR RG","uid":7140774,"size":1952539518,"categoryP":"video","categoryS":"movies","magnet":"?xt=urn:btih:7381db2c75e17d4aab8e8aebff996fa7d2316e16&amp;dn=SECONDS+APART+%282011%29+DVDRip+%5BMKV+6ch+AC3%5D%5BRoB%5DPR3DATOR+RG&amp;tr=udp%3A%2F%2Ftracker.openbittorrent.com%3A80&amp;tr=udp%3A%2F%2Fopen.demonii.com%3A1337&amp;tr=udp%3A%2F%2Ftracker.coppersurfer.tk%3A6969&amp;tr=udp%3A%2F%2Fexodus.desync.com%3A6969","seeders":0,"leechers":0,"uploader":"BLOVES","files":5,"time":1332994821,"description":" &lt;a href=&quot;http://img339.imageshack.us/img339/5900/mv5bmtyynzuwmdg4mf5bml5w.jpg&quot; rel=&quot;nofollow&quot; target=&quot;_NEW&quot;&gt;http://img339.imageshack.us/img339/5900/mv5bmtyynzuwmdg4mf5bml5w.jpg&lt;/a&gt;\n\nComplete name :SECONDS APART (2011) DVDRip [MKV 6ch AC3][RoB]PR3DATOR RG\nFormat : Matroska\nFormat version : Version 2\nFile size : 1.80 GiB\nDuration : 1h 29mn\nOverall bit rate : 2 886 Kbps\nWriting application : Lavf51.12.1\nWriting library : Lavf51.12.1\n\nVideo\nID : 1\nFormat : AVC\nFormat/Info : Advanced Video Codec\nFormat profile : &lt;a class=&quot;__cf_email__&quot; href=&quot;/cdn-cgi/l/email-protection&quot; data-cfemail=&quot;c785a6b4a2abaea9a2878bf4e9f7&quot;&gt;[email&amp;#160;protected]&lt;/a&gt;&lt;script cf-hash='f9e31' type=&quot;text/javascript&quot;&gt;\n/* &lt;![CDATA[ */!function(){try{var t=&quot;currentScript&quot;in document?document.currentScript:function(){for(var t=document.getElementsByTagName(&quot;script&quot;),e=t.length;e--;)if(t[e].getAttribute(&quot;cf-hash&quot;))return t[e]}();if(t&amp;&amp;t.previousSibling){var e,r,n,i,c=t.previousSibling,a=c.getAttribute(&quot;data-cfemail&quot;);if(a){for(e=&quot;&quot;,r=parseInt(a.substr(0,2),16),n=2;a.length-n;n+=2)i=parseInt(a.substr(n,2),16)^r,e+=String.fromCharCode(i);e=document.createTextNode(e),c.parentNode.replaceChild(e,c)}}}catch(u){}}();/* ]]&gt; */&lt;/script&gt;\nFormat settings, CABAC : No\nFormat settings, ReFrames : 5 frames\nFormat settings, GOP : M=1, N=12\nCodec ID : V_MPEG4/ISO/AVC\nDuration : 1h 29mn\nBit rate : 2 637 Kbps\nWidth : 720 pixels\nHeight : 400 pixels\nDisplay aspect ratio : 16:9\nFrame rate mode : Variable\nFrame rate : 23.976 fps\nColor space : YUV\nChroma subsampling : 4:2:0\nBit depth : 8 bits\nScan type : Progressive\nBits/(Pixel*Frame) : 0.382\nStream size : 1.64 GiB (91%)\nLanguage : English\n\nAudio\nID : 2\nFormat : AC-3\nFormat/Info : Audio Coding 3\nMode extension : CM (complete main)\nCodec ID : A_AC3\nDuration : 1h 29mn\nBit rate mode : Constant\nBit rate : 192 Kbps\nChannel(s) : 6 channels\nChannel positions : Front: L C R, Side: L R, LFE\nSampling rate : 44.1 KHz\nBit depth : 16 bits\nCompression mode : Lossy\nStream size : 122 MiB (7%)\nLanguage : English","torrent":{"xt":"urn:btih:7381db2c75e17d4aab8e8aebff996fa7d2316e16","amp;dn":"SECONDS+APART+%282011%29+DVDRip+%5BMKV+6ch+AC3%5D%5BRoB%5DPR3DATOR+RG","amp;tr":["udp%3A%2F%2Ftracker.openbittorrent.com%3A80","udp%3A%2F%2Fopen.demonii.com%3A1337","udp%3A%2F%2Ftracker.coppersurfer.tk%3A6969","udp%3A%2F%2Fexodus.desync.com%3A6969"],"infoHash":"7381db2c75e17d4aab8e8aebff996fa7d2316e16","infoHashBuffer":{"type":"Buffer","data":[115,129,219,44,117,225,125,74,171,142,138,235,255,153,111,167,210,49,110,22]},"announce":[],"urlList":[]}}